<svg width="72" height="72" viewBox="0 0 72 72" fill="none" xmlns="http://www.w3.org/2000/svg">
<path d="M14.2666 22.6841L57.3277 17.041L59.6523 34.78L16.5913 40.4231L14.2666 22.6841Z" fill="#04924F"/>
<path d="M59.6152 34.7862L54.6652 35.4342L35.0513 37.9989V19.9654L57.2962 17.0549L59.0269 30.2936L59.6152 34.7862Z" fill="#0C6B50"/>
<path d="M10.1631 26.6204L53.3544 22.3663L55.1068 40.159L11.9155 44.413L10.1631 26.6204Z" fill="#7BCC29"/>
<path d="M55.1307 40.1387L35.0513 42.1248V24.1544L53.3708 22.3428L54.1239 29.9592L54.6652 35.4344L55.1307 40.1387Z" fill="#04924F"/>
<path d="M56.9414 67.7732H11.7043C8.017 67.7732 5 64.7563 5 61.0688V36.6639C5 32.9766 8.017 29.9597 11.7043 29.9597H56.9414C60.6287 29.9597 63.6457 32.9767 63.6457 36.6639V61.0688C63.6456 64.7563 60.6287 67.7732 56.9414 67.7732Z" fill="#FFDC00"/>
<path d="M63.6456 36.6642V61.0693C63.6456 64.7555 60.6285 67.7727 56.9406 67.7727H35.0513V29.9592H56.9406C57.6679 29.9592 58.3692 30.0772 59.027 30.2938C61.7015 31.1761 63.6456 33.7036 63.6456 36.6642Z" fill="#FCB813"/>
<path fill-rule="evenodd" clip-rule="evenodd" d="M35.6035 47.4097V34.8062L30.202 41.1073L35.6035 47.4097Z" fill="#FCB813"/>
<path fill-rule="evenodd" clip-rule="evenodd" d="M30.2021 54.6118V40.2078L23.0001 47.4091L30.2021 54.6118Z" fill="#FCB813"/>
<path fill-rule="evenodd" clip-rule="evenodd" d="M35.6035 61.8137V47.4097L30.202 54.6107L35.6035 61.8137Z" fill="#FCB813"/>
<path fill-rule="evenodd" clip-rule="evenodd" d="M30.2021 67.2153V54.6118L23.0001 60.9127L30.2021 67.2153Z" fill="#FCB813"/>
<path fill-rule="evenodd" clip-rule="evenodd" d="M30.2021 42.0083V29.4048L23.0001 35.7063L30.2021 42.0083Z" fill="#FCB813"/>
<path d="M66.9457 59.5878H51.6943C45.5172 59.5878 40.5098 54.5803 40.5098 48.4033C40.5098 42.2262 45.5172 37.2188 51.6943 37.2188H66.9457V59.5878Z" fill="#FF8A00"/>
<path d="M52.6668 53.797C55.6458 53.797 58.0607 51.3821 58.0607 48.4032C58.0607 45.4242 55.6458 43.0093 52.6668 43.0093C49.6879 43.0093 47.2729 45.4242 47.2729 48.4032C47.2729 51.3821 49.6879 53.797 52.6668 53.797Z" fill="#FFB531"/>
<path d="M53.018 9.70836L50.3143 9.70836L50.3143 11.7302L43.8267 11.7302L43.8267 9.70836L41.123 9.70836L47.0706 5.00012L53.018 9.70836Z" fill="#FF8A00"/>
<path d="M50.2421 13.0961C50.2421 13.3942 50 13.6362 49.7019 13.6362L44.2996 13.6362C44.0013 13.6362 43.7593 13.3942 43.7593 13.0961C43.7593 12.7979 44.0013 12.5559 44.2996 12.5559L49.7019 12.5559C50 12.5559 50.2421 12.7979 50.2421 13.0961Z" fill="#F16528"/>
<path d="M50.2421 15.4557C50.2421 15.7538 50 15.9958 49.7019 15.9958L44.2996 15.9958C44.0013 15.9958 43.7593 15.7538 43.7593 15.4557C43.7593 15.1575 44.0013 14.9155 44.2996 14.9155L49.7019 14.9155C50 14.9155 50.2421 15.1575 50.2421 15.4557Z" fill="#F16528"/>
<path d="M53.2099 9.83329L50.2423 9.83329L50.2423 11.7302L47.001 11.7302L47.001 5.00006L53.2099 9.83329Z" fill="#F16528"/>
</svg>
